PathFileType	4	(X/Y/Z)	/Users/itak/Documents/Research/Walk-IL/dataset/trc/00248_00009.trc
DataRate	CameraRate	NumFrames	NumMarkers	Units	OrigDataRate	OrigDataStartFrame	OrigNumFrames
100.000000	100.000000	4	53	mm	100.000000	203	543
Frame#	Time	RPSI			LPSI			L3			STRN			T10			C7			CLAV			RBAK			LBAK			LSHO			LUPA			LAEL			LAOL			LWTS			LWPS			LFRA			LHPS			LHTS			RSHO			RUPA			RAEL			RAOL			RWTS			RWPS			RFRA			RIFD			RHTS			RHPS			RBHD			LFHD			RFHD			LBHD			LHIP			RHIP			RASI			LASI			LKNE			LTHI			LANK			LTIP			LTOE			LMT1			LMT5			LHEE			RKNE			RTHI			RANK			RTIP			RTOE			RMT1			RMT5			RHEE			LIFD			
		X1	Y1	Z1	X2	Y2	Z2	X3	Y3	Z3	X4	Y4	Z4	X5	Y5	Z5	X6	Y6	Z6	X7	Y7	Z7	X8	Y8	Z8	X9	Y9	Z9	X10	Y10	Z10	X11	Y11	Z11	X12	Y12	Z12	X13	Y13	Z13	X14	Y14	Z14	X15	Y15	Z15	X16	Y16	Z16	X17	Y17	Z17	X18	Y18	Z18	X19	Y19	Z19	X20	Y20	Z20	X21	Y21	Z21	X22	Y22	Z22	X23	Y23	Z23	X24	Y24	Z24	X25	Y25	Z25	X26	Y26	Z26	X27	Y27	Z27	X28	Y28	Z28	X29	Y29	Z29	X30	Y30	Z30	X31	Y31	Z31	X32	Y32	Z32	X33	Y33	Z33	X34	Y34	Z34	X35	Y35	Z35	X36	Y36	Z36	X37	Y37	Z37	X38	Y38	Z38	X39	Y39	Z39	X40	Y40	Z40	X41	Y41	Z41	X42	Y42	Z42	X43	Y43	Z43	X44	Y44	Z44	X45	Y45	Z45	X46	Y46	Z46	X47	Y47	Z47	X48	Y48	Z48	X49	Y49	Z49	X50	Y50	Z50	X51	Y51	Z51	X52	Y52	Z52	X53	Y53	Z53	

204	2.03	-1340.0048828125	1024.845336914062	-341.0503234863281	-1321.633422851562	1032.089233398438	-459.2641296386719	-1331.671752929688	1118.729614257812	-411.2524719238281	-1064.03369140625	1278.35546875	-380.248046875	-1320.057006835938	1243.25634765625	-397.8739929199219	-1234.712280273438	1497.733032226562	-391.9524536132812	-1078.880249023438	1398.1328125	-379.7854309082031	-1328.184692382812	1366.0068359375	-324.4284362792969	-1251.774780273438	1461.94482421875	-502.8426818847656	-1160.684692382812	1454.154174804688	-555.39794921875	-1208.64453125	1340.83056640625	-633.8352661132812	-1241.15966796875	1134.033325195312	-661.4067993164062	-1313.122436523438	1133.122436523438	-611.523193359375	-1207.19921875	883.5579223632812	-609.0432739257812	-1237.002197265625	875.2456665039062	-688.51416015625	-1243.901611328125	1024.939819335938	-677.0756225585938	-1241.906127929688	785.0240478515625	-686.037841796875	-1198.622192382812	777.7247314453125	-632.2990112304688	-1194.417724609375	1452.071044921875	-218.1540069580078	-1223.3671875	1389.587646484375	-152.51171875	-1273.904663085938	1110.280151367188	-119.1551666259766	-1302.657348632812	1109.211791992188	-209.8223114013672	-1151.630249023438	886.3446655273438	-165.9154052734375	-1208.048095703125	874.0152587890625	-102.1847763061523	-1253.088989257812	1039.188110351562	-107.3910827636719	-1153.294677734375	693.3519897460938	-178.7603302001953	-1123.283569335938	762.2658081054688	-153.3118743896484	-1176.627685546875	764.90234375	-103.7579193115234	-1182.835815429688	1651.721313476562	-354.3346252441406	-958.6053466796875	1664.700561523438	-393.29638671875	-985.3076171875	1666.013305664062	-296.7419738769531	-1103.800659179688	1649.531982421875	-470.318603515625	-1194.808837890625	976.2369995117188	-575.30859375	-1268.951904296875	976.5258178710938	-217.8764495849609	-1163.240234375	1017.809631347656	-233.3973693847656	-1107.60986328125	1013.748352050781	-506.6847229003906	-1002.0224609375	526.9769287109375	-488.8418273925781	-1054.066162109375	655.5182495117188	-536.1505737304688	-1008.198974609375	36.16044998168945	-510.3580322265625	-1007.508239746094	294.9452209472656	-510.50244140625	-840.1829833984375	74.64914703369141	-374.8452453613281	-919.3740234375	57.76960372924805	-362.3803100585938	-887.2947998046875	45.88564300537109	-470.8490600585938	-1086.491455078125	38.88093566894531	-488.718994140625	-1314.68115234375	495.71923828125	-275.9584350585938	-1239.25341796875	749.7064208984375	-212.9129028320312	-1498.836303710938	43.16806793212891	-343.1065368652344	-1335.334838867188	378.9039001464844	-303.3811340332031	-1284.489135742188	46.19815826416016	-356.1173706054688	-1332.879150390625	42.41667175292969	-405.5868530273438	-1394.062866210938	41.09976577758789	-300.4718627929688	-1553.013061523438	46.65437316894531	-409.4222412109375	-1249.910278320312	693.2202758789062	-618.6049194335938	
205	2.04	-1333.088134765625	1023.579406738281	-341.7920532226562	-1314.390747070312	1031.040771484375	-459.9233093261719	-1324.655639648438	1117.383666992188	-411.9198608398438	-1057.669555664062	1277.552734375	-379.5005187988281	-1313.52587890625	1242.02587890625	-398.6527709960938	-1228.627197265625	1496.706176757812	-392.4291381835938	-1072.768798828125	1397.271850585938	-379.2533874511719	-1322.325805664062	1364.834350585938	-325.4174499511719	-1245.053588867188	1460.71826171875	-503.3908081054688	-1153.635375976562	1452.936279296875	-555.4122924804688	-1200.991943359375	1339.418212890625	-633.970458984375	-1232.988525390625	1132.570922851562	-661.61669921875	-1305.254638671875	1131.6142578125	-612.1487426757812	-1199.30322265625	882.1224365234375	-608.9545288085938	-1228.493041992188	873.7943115234375	-688.6104125976562	-1235.582275390625	1023.475708007812	-677.24267578125	-1233.495971679688	783.6078491210938	-686.1895141601562	-1190.580688476562	776.2805786132812	-632.134765625	-1189.473022460938	1451.268920898438	-218.2823486328125	-1218.660034179688	1388.740600585938	-152.8576049804688	-1269.195434570312	1109.477783203125	-119.3642044067383	-1297.473266601562	1108.260375976562	-210.2336273193359	-1145.985107421875	885.6797485351562	-165.3556823730469	-1203.054077148438	873.3054809570312	-101.8385772705078	-1248.393432617188	1038.402221679688	-107.4281005859375	-1147.501098632812	692.7335205078125	-177.9576110839844	-1117.699951171875	761.7280883789062	-152.3515930175781	-1171.327758789062	764.2609252929688	-103.1541519165039	-1176.863403320312	1650.963134765625	-354.5310668945312	-952.330322265625	1663.716430664062	-392.4035949707031	-979.619140625	1665.0810546875	-295.9438781738281	-1097.212890625	1648.645629882812	-470.1070251464844	-1186.869018554688	975.424072265625	-575.4202880859375	-1262.492919921875	975.1839599609375	-218.4746856689453	-1156.793579101562	1016.657470703125	-233.3183898925781	-1100.1279296875	1013.033203125	-506.3845825195312	-995.4635620117188	525.8960571289062	-488.0526733398438	-1047.202880859375	654.4097290039062	-535.1985473632812	-1007.114685058594	35.74362945556641	-509.864013671875	-1003.105407714844	293.6732788085938	-509.2745361328125	-838.6409912109375	69.46148681640625	-373.3994140625	-918.1275024414062	54.27510452270508	-361.3712463378906	-885.8986206054688	42.99931716918945	-470.0734252929688	-1085.503662109375	39.42875289916992	-488.1858520507812	-1309.650146484375	495.2750549316406	-276.2274780273438	-1233.199951171875	748.7863159179688	-213.1500244140625	-1498.54541015625	44.08325576782227	-342.8681640625	-1331.531005859375	378.427978515625	-303.5340881347656	-1284.611083984375	46.08979034423828	-355.7343139648438	-1332.866821289062	42.57474517822266	-405.3846435546875	-1394.002075195312	40.98518371582031	-300.3157653808594	-1553.029052734375	48.70033645629883	-409.0046997070312	-1241.998291015625	691.7969970703125	-618.7972412109375	
206	2.05	-1326.041870117188	1022.397644042969	-342.4718627929688	-1307.104125976562	1030.079956054688	-460.5524291992188	-1317.499877929688	1116.082885742188	-412.5442199707031	-1051.192016601562	1276.882934570312	-378.7877807617188	-1306.909301757812	1240.876098632812	-399.4669494628906	-1222.495239257812	1495.77294921875	-392.9108581542969	-1066.601806640625	1396.51806640625	-378.7444152832031	-1316.3896484375	1363.718627929688	-326.4462585449219	-1238.286376953125	1459.592895507812	-503.9463806152344	-1146.543212890625	1451.831909179688	-555.4332275390625	-1193.239868164062	1338.084594726562	-634.0977783203125	-1224.532104492188	1131.159545898438	-661.8065185546875	-1297.136352539062	1130.111328125	-612.7817993164062	-1190.979858398438	880.7613525390625	-608.843994140625	-1219.557739257812	872.4033813476562	-688.7007446289062	-1226.94140625	1022.069152832031	-677.4000244140625	-1224.64013671875	782.255859375	-686.3556518554688	-1182.123291015625	774.8922119140625	-631.971435546875	-1184.4296875	1450.490234375	-218.4651489257812	-1213.918579101562	1387.93603515625	-153.2401428222656	-1264.423217773438	1108.720825195312	-119.6347198486328	-1292.201293945312	1107.340942382812	-210.7206268310547	-1140.295532226562	885.0375366210938	-164.7076416015625	-1198.052001953125	872.6405029296875	-101.4748001098633	-1243.656860351562	1037.663696289062	-107.5093231201172	-1141.740966796875	692.1083374023438	-177.0541229248047	-1112.151489257812	761.202880859375	-151.3164978027344	-1166.026611328125	763.659912109375	-102.4657745361328	-1170.812866210938	1650.301513671875	-354.7067260742188	-946.0068359375	1662.859130859375	-391.5096130371094	-973.8804321289062	1664.2666015625	-295.1511840820312	-1090.578369140625	1647.878662109375	-469.8869934082031	-1178.968383789062	974.7138061523438	-575.6027221679688	-1255.855712890625	973.9459228515625	-219.0736999511719	-1150.13525390625	1015.585083007812	-233.3208923339844	-1092.617309570312	1012.427673339844	-506.2054748535156	-988.6897583007812	524.9677124023438	-487.1595458984375	-1040.20654296875	653.482666015625	-534.0787353515625	-1006.6259765625	35.55721282958984	-509.5056762695312	-998.8233642578125	292.5870971679688	-508.0711059570312	-837.4851684570312	64.55555725097656	-372.3507690429688	-917.2484130859375	51.09358215332031	-360.6735229492188	-885.0154418945312	40.61738586425781	-469.7910461425781	-1085.047607421875	40.07304000854492	-487.7066650390625	-1304.291015625	494.8880615234375	-276.4599609375	-1226.857543945312	747.9639892578125	-213.4690856933594	-1498.192016601562	45.20880126953125	-342.597900390625	-1327.439697265625	378.0227355957031	-303.6568603515625	-1284.6474609375	46.00444793701172	-355.3629760742188	-1332.815551757812	42.76825332641602	-405.18798828125	-1393.873901367188	40.88750839233398	-300.16357421875	-1552.977783203125	51.03278732299805	-408.5784912109375	-1233.578369140625	690.4171752929688	-619.0071411132812	
207	2.06	-1318.891723632812	1021.328369140625	-343.0898132324219	-1299.786010742188	1029.216552734375	-461.14599609375	-1310.233520507812	1114.868896484375	-413.1207580566406	-1044.607055664062	1276.372924804688	-378.1171875	-1300.212280273438	1239.845458984375	-400.3006896972656	-1216.319946289062	1494.963012695312	-393.3907775878906	-1060.387817382812	1395.8984375	-378.2637329101562	-1310.37841796875	1362.696899414062	-327.5004272460938	-1231.478393554688	1458.605590820312	-504.50244140625	-1139.4208984375	1450.878540039062	-555.4591064453125	-1185.4013671875	1336.870971679688	-634.2141723632812	-1215.80615234375	1129.842163085938	-661.9660034179688	-1288.774047851562	1128.650268554688	-613.4051513671875	-1182.22412109375	879.5159301757812	-608.7124633789062	-1210.195434570312	871.1170043945312	-688.7789306640625	-1217.984252929688	1020.76220703125	-677.5389404296875	-1215.326416015625	781.0073852539062	-686.5293579101562	-1173.221435546875	773.6112060546875	-631.8009643554688	-1179.291137695312	1449.775268554688	-218.6927642822266	-1209.12646484375	1387.203857421875	-153.6522827148438	-1259.581176757812	1108.036865234375	-119.9787979125977	-1286.81591796875	1106.484741210938	-211.2874298095703	-1134.574340820312	884.4378051757812	-163.9722290039062	-1193.052124023438	872.0488891601562	-101.0968856811523	-1238.874755859375	1037.002075195312	-107.6434783935547	-1136.020874023438	691.4983520507812	-176.0394439697266	-1106.659790039062	760.7026977539062	-150.2005767822266	-1160.760375976562	763.1256713867188	-101.6939697265625	-1164.683471679688	1649.758422851562	-354.8558349609375	-939.6416015625	1662.153198242188	-390.6120910644531	-968.090576171875	1663.595092773438	-294.3616027832031	-1083.900268554688	1647.255126953125	-469.65625	-1171.107543945312	974.1219482421875	-575.8496704101562	-1249.064819335938	972.8572387695312	-219.6587066650391	-1143.298950195312	1014.641662597656	-233.3993377685547	-1085.085693359375	1011.961730957031	-506.1390380859375	-981.7578125	524.1773071289062	-486.1876220703125	-1033.07861328125	652.7572631835938	-532.8461303710938	-1006.458801269531	35.54681015014648	-509.237060546875	-994.561279296875	291.6756286621094	-506.9057922363281	-836.5313110351562	60.17090606689453	-371.568115234375	-916.5740356445312	48.38228607177734	-360.1794738769531	-884.4205932617188	38.79690551757812	-469.84765625	-1084.8505859375	40.76207733154297	-487.2708129882812	-1298.565063476562	494.5709228515625	-276.6348876953125	-1220.244750976562	747.2640380859375	-213.8530426025391	-1497.774658203125	46.58436965942383	-342.3086242675781	-1323.019897460938	377.7072448730469	-303.7160949707031	-1284.60546875	45.96079635620117	-355.0213928222656	-1332.709228515625	43.00040817260742	-405.0086975097656	-1393.671752929688	40.81439208984375	-300.0204467773438	-1552.819702148438	53.67515182495117	-408.1704406738281	-1224.634887695312	689.1202392578125	-619.2330322265625	
